<svg width="273" height="72" viewBox="0 0 273 72" fill="none" xmlns="http://www.w3.org/2000/svg">
<g clip-path="url(#clip0_10_147)">
<rect width="273" height="72" fill="white"/>
<path d="M23.5973 16.1589H66.3302V27.9105H23.5973V16.1589Z" fill="black"/>
<path d="M44.8966 8.45839L90.2099 15.3568L44.8966 21.7246L-3.27186e-05 15.3568L44.8966 8.45839Z" fill="black"/>
<path d="M79.5967 21.7245L81.7193 24.3778L79.5967 27.031L77.4741 24.3778L79.5967 21.7245Z" fill="black"/>
<path d="M79.066 15.8874H80.1273V23.3164L79.066 23.3164V15.8874Z" fill="black"/>
<path d="M44.8422 63.7231L40.3252 55.1553L49.3462 55.1553L44.8422 63.7231Z" fill="black"/>
<rect x="36.3149" y="30.3774" width="16.7504" height="9.30576" fill="black"/>
<ellipse cx="30.1114" cy="43.4054" rx="14.2688" ry="13.9586" fill="white"/>
<circle cx="28.6546" cy="44.3946" r="14.3275" fill="black"/>
<ellipse cx="59.1144" cy="43.4054" rx="14.4239" ry="13.9586" fill="white"/>
<circle cx="60.4932" cy="44.3946" r="14.3275" fill="black"/>
<circle cx="28.871" cy="44.3359" r="9.61596" fill="#FF7F00"/>
<circle cx="60.5102" cy="44.3359" r="9.61596" fill="#FF7F00"/>
<path d="M35.3846 44.8013C35.3846 48.3989 32.4682 50.5398 28.8706 50.5398C25.273 50.5398 22.3566 48.709 22.3566 45.1114C22.3566 41.5138 25.273 44.336 28.8706 44.336C32.4682 44.336 35.3846 41.2036 35.3846 44.8013Z" fill="black"/>
<path d="M67.0245 44.8244C67.0245 48.422 64.1081 50.5629 60.5105 50.5629C56.9129 50.5629 53.9965 48.7322 53.9965 45.1346C53.9965 41.537 56.9129 44.3591 60.5105 44.3591C64.1081 44.3591 67.0245 41.2268 67.0245 44.8244Z" fill="black"/>
<rect x="18.6343" y="43.0952" width="21.7134" height="1.86115" fill="black"/>
<rect x="49.6536" y="43.0952" width="21.7134" height="1.86115" fill="black"/>
<path d="M97.51 28.4907V38.7543H102.642C103.345 38.7543 104.007 38.6231 104.627 38.3609C105.246 38.0867 105.789 37.7172 106.254 37.2523C106.719 36.7874 107.082 36.245 107.344 35.6251C107.619 34.9933 107.756 34.3258 107.756 33.6225C107.756 32.9191 107.619 32.2576 107.344 31.6377C107.082 31.0059 106.719 30.4575 106.254 29.9926C105.789 29.5277 105.246 29.1642 104.627 28.9019C104.007 28.6277 103.345 28.4907 102.642 28.4907H97.51ZM97.51 49H92.3782V23.3588H102.642C103.583 23.3588 104.489 23.484 105.36 23.7343C106.23 23.9728 107.04 24.3185 107.791 24.7714C108.554 25.2125 109.246 25.7489 109.866 26.3807C110.497 27.0006 111.034 27.692 111.475 28.4549C111.928 29.2178 112.274 30.0344 112.512 30.9046C112.762 31.7748 112.887 32.6807 112.887 33.6225C112.887 35.0291 112.619 36.3582 112.083 37.6099C111.546 38.8496 110.813 39.9344 109.884 40.8642C108.954 41.794 107.863 42.5271 106.611 43.0636C105.372 43.6 104.048 43.8682 102.642 43.8682H97.51V49ZM112.943 31.0476C112.943 29.9867 113.145 28.9913 113.551 28.0615C113.956 27.1317 114.504 26.3211 115.196 25.6297C115.899 24.9264 116.715 24.3721 117.645 23.9668C118.575 23.5615 119.57 23.3588 120.631 23.3588H132.397V28.4907H120.631C120.274 28.4907 119.94 28.5562 119.63 28.6873C119.32 28.8185 119.046 29.0032 118.807 29.2417C118.581 29.4681 118.402 29.7364 118.271 30.0463C118.14 30.3562 118.074 30.69 118.074 31.0476C118.074 31.4052 118.14 31.745 118.271 32.0668C118.402 32.3768 118.581 32.6509 118.807 32.8893C119.046 33.1158 119.32 33.2946 119.63 33.4258C119.94 33.5569 120.274 33.6225 120.631 33.6225H125.763C126.824 33.6225 127.819 33.8251 128.749 34.2304C129.691 34.6238 130.508 35.1721 131.199 35.8754C131.902 36.5668 132.451 37.3834 132.844 38.3251C133.249 39.2549 133.452 40.2503 133.452 41.3112C133.452 42.3722 133.249 43.3675 132.844 44.2973C132.451 45.2271 131.902 46.0437 131.199 46.747C130.508 47.4384 129.691 47.9868 128.749 48.3921C127.819 48.7974 126.824 49 125.763 49H114.373V43.8682H125.763C126.121 43.8682 126.455 43.8026 126.764 43.6715C127.074 43.5404 127.343 43.3616 127.569 43.1351C127.808 42.8967 127.992 42.6225 128.123 42.3126C128.255 42.0026 128.32 41.6688 128.32 41.3112C128.32 40.9536 128.255 40.6198 128.123 40.3099C127.992 40 127.808 39.7318 127.569 39.5053C127.343 39.2669 127.074 39.0821 126.764 38.951C126.455 38.8198 126.121 38.7543 125.763 38.7543H120.631C119.57 38.7543 118.575 38.5516 117.645 38.1463C116.715 37.741 115.899 37.1927 115.196 36.5013C114.504 35.798 113.956 34.9814 113.551 34.0516C113.145 33.1099 112.943 32.1085 112.943 31.0476ZM155.84 46.3715C154.648 47.3967 153.313 48.1834 151.835 48.7318C150.357 49.2801 148.825 49.5543 147.239 49.5543C146.024 49.5543 144.849 49.3934 143.717 49.0715C142.596 48.7616 141.541 48.3205 140.552 47.7483C139.575 47.1642 138.681 46.4669 137.87 45.6563C137.059 44.8457 136.362 43.9516 135.778 42.9742C135.206 41.9847 134.759 40.9298 134.437 39.8092C134.127 38.6768 133.972 37.5026 133.972 36.2867C133.972 35.0708 134.127 33.8966 134.437 32.7642C134.759 31.6317 135.206 30.5768 135.778 29.5993C136.362 28.6099 137.059 27.7099 137.87 26.8993C138.681 26.0887 139.575 25.3973 140.552 24.8251C141.541 24.241 142.596 23.7939 143.717 23.484C144.849 23.1622 146.024 23.0012 147.239 23.0012C148.825 23.0012 150.357 23.2754 151.835 23.8238C153.313 24.3602 154.648 25.1469 155.84 26.184L153.122 30.6542C152.371 29.8436 151.483 29.2238 150.458 28.7946C149.433 28.3536 148.36 28.133 147.239 28.133C146.107 28.133 145.046 28.3476 144.057 28.7767C143.067 29.2059 142.203 29.79 141.464 30.5291C140.725 31.2562 140.141 32.1205 139.712 33.1218C139.283 34.1112 139.068 35.1662 139.068 36.2867C139.068 37.4072 139.283 38.4622 139.712 39.4516C140.141 40.4291 140.725 41.2874 141.464 42.0265C142.203 42.7655 143.067 43.3496 144.057 43.7788C145.046 44.2079 146.107 44.4225 147.239 44.4225C148.36 44.4225 149.433 44.2079 150.458 43.7788C151.483 43.3377 152.371 42.7119 153.122 41.9013L155.84 46.3715Z" fill="#FF7F00"/>
<path d="M191.605 41.6688C191.605 42.7298 191.402 43.7311 190.997 44.6728C190.603 45.6026 190.055 46.4192 189.352 47.1225C188.66 47.8139 187.844 48.3622 186.902 48.7675C185.972 49.1609 184.977 49.3576 183.916 49.3576C182.962 49.3576 182.044 49.1907 181.162 48.857C180.292 48.5232 179.505 48.0344 178.802 47.3907C178.099 48.0344 177.306 48.5232 176.424 48.857C175.542 49.1907 174.624 49.3576 173.67 49.3576C172.609 49.3576 171.608 49.1609 170.666 48.7675C169.736 48.3622 168.92 47.8139 168.217 47.1225C167.525 46.4192 166.977 45.6026 166.572 44.6728C166.178 43.7311 165.981 42.7298 165.981 41.6688V23.3588H171.113V41.6688C171.113 42.0265 171.179 42.3662 171.31 42.6881C171.441 42.998 171.62 43.2722 171.846 43.5106C172.085 43.7371 172.359 43.9159 172.669 44.047C172.979 44.1781 173.313 44.2437 173.67 44.2437C174.028 44.2437 174.362 44.1781 174.672 44.047C174.982 43.9159 175.25 43.7371 175.476 43.5106C175.715 43.2722 175.899 42.998 176.031 42.6881C176.162 42.3662 176.227 42.0265 176.227 41.6688V23.3588H181.359V41.6688C181.359 42.0265 181.425 42.3662 181.556 42.6881C181.687 42.998 181.866 43.2722 182.092 43.5106C182.331 43.7371 182.605 43.9159 182.915 44.047C183.225 44.1781 183.558 44.2437 183.916 44.2437C184.274 44.2437 184.607 44.1781 184.917 44.047C185.227 43.9159 185.495 43.7371 185.722 43.5106C185.96 43.2722 186.145 42.998 186.276 42.6881C186.419 42.3662 186.491 42.0265 186.491 41.6688V23.3588H191.605V41.6688ZM199.867 49H194.735V23.3588H199.867V49ZM223.686 49H218.196L208.308 32.1205V49H203.177V23.3588H208.666L218.554 40.2563V23.3588H223.686V49ZM247.397 46.4073C246.205 47.4205 244.876 48.2013 243.41 48.7497C241.944 49.2861 240.418 49.5543 238.832 49.5543C237.616 49.5543 236.442 49.3934 235.31 49.0715C234.189 48.7616 233.14 48.3205 232.163 47.7483C231.185 47.1642 230.291 46.4728 229.481 45.6742C228.67 44.8636 227.979 43.9695 227.407 42.992C226.834 42.0026 226.387 40.9417 226.065 39.8092C225.756 38.6768 225.601 37.5026 225.601 36.2867C225.601 35.0708 225.756 33.9026 226.065 32.7821C226.387 31.6615 226.834 30.6125 227.407 29.635C227.979 28.6456 228.67 27.7516 229.481 26.9529C230.291 26.1423 231.185 25.4509 232.163 24.8787C233.14 24.3065 234.189 23.8655 235.31 23.5555C236.442 23.2337 237.616 23.0728 238.832 23.0728C240.418 23.0728 241.944 23.3469 243.41 23.8953C244.876 24.4317 246.205 25.2065 247.397 26.2198L244.715 30.69C243.94 29.9032 243.046 29.2893 242.033 28.8483C241.02 28.3953 239.953 28.1688 238.832 28.1688C237.712 28.1688 236.657 28.3834 235.667 28.8125C234.69 29.2417 233.832 29.8258 233.093 30.5648C232.354 31.292 231.769 32.1503 231.34 33.1397C230.911 34.1172 230.697 35.1662 230.697 36.2867C230.697 37.4192 230.911 38.4801 231.34 39.4695C231.769 40.4589 232.354 41.3232 233.093 42.0622C233.832 42.8013 234.69 43.3854 235.667 43.8146C236.657 44.2437 237.712 44.4583 238.832 44.4583C239.476 44.4583 240.102 44.3808 240.71 44.2258C241.318 44.0708 241.896 43.8563 242.444 43.5821V36.2867H247.397V46.4073ZM248.382 31.0476C248.382 29.9867 248.585 28.9913 248.99 28.0615C249.395 27.1317 249.944 26.3211 250.635 25.6297C251.339 24.9264 252.155 24.3721 253.085 23.9668C254.015 23.5615 255.01 23.3588 256.071 23.3588H267.837V28.4907H256.071C255.713 28.4907 255.38 28.5562 255.07 28.6873C254.76 28.8185 254.486 29.0032 254.247 29.2417C254.021 29.4681 253.842 29.7364 253.711 30.0463C253.58 30.3562 253.514 30.69 253.514 31.0476C253.514 31.4052 253.58 31.745 253.711 32.0668C253.842 32.3768 254.021 32.6509 254.247 32.8893C254.486 33.1158 254.76 33.2946 255.07 33.4258C255.38 33.5569 255.713 33.6225 256.071 33.6225H261.203C262.264 33.6225 263.259 33.8251 264.189 34.2304C265.131 34.6238 265.947 35.1721 266.639 35.8754C267.342 36.5668 267.89 37.3834 268.284 38.3251C268.689 39.2549 268.892 40.2503 268.892 41.3112C268.892 42.3722 268.689 43.3675 268.284 44.2973C267.89 45.2271 267.342 46.0437 266.639 46.747C265.947 47.4384 265.131 47.9868 264.189 48.3921C263.259 48.7974 262.264 49 261.203 49H249.813V43.8682H261.203C261.56 43.8682 261.894 43.8026 262.204 43.6715C262.514 43.5404 262.782 43.3616 263.009 43.1351C263.247 42.8967 263.432 42.6225 263.563 42.3126C263.694 42.0026 263.76 41.6688 263.76 41.3112C263.76 40.9536 263.694 40.6198 263.563 40.3099C263.432 40 263.247 39.7318 263.009 39.5053C262.782 39.2669 262.514 39.0821 262.204 38.951C261.894 38.8198 261.56 38.7543 261.203 38.7543H256.071C255.01 38.7543 254.015 38.5516 253.085 38.1463C252.155 37.741 251.339 37.1927 250.635 36.5013C249.944 35.798 249.395 34.9814 248.99 34.0516C248.585 33.1099 248.382 32.1085 248.382 31.0476Z" fill="black"/>
</g>
<defs>
<clipPath id="clip0_10_147">
<rect width="273" height="72" fill="white"/>
</clipPath>
</defs>
</svg>
